<svg xmlns="http://www.w3.org/2000/svg" width="800" height="800" viewBox="0 0 800 800"><path fill="#C8C8C8" d="M400 50.5C207 50.5 50.6 207 50.6 400c0 175.6 129.5 321 298.3 345.8v-.3c-1-32.4 10.8-248.3 10-248.5 0 0-57.6 39-71.4 40.6-13.8 1.6-24.4-3-24.4-3s-23.9 10.6-34.7 2.2c0 0-5.3-1-10.9 1.4s-19.8-1.9-19.8-1.9l-16.5.6 27.1-15.8s15.2-16.6 24.6-14.7c6.4-14.2 68.7-18.9 68.7-18.9s-56.7-16.2-74.6-34.6c0 0-19.9-12-18-18 0 0-14-11-14.5-21.2l-13.4-10.3-6.3-12.9-10.1-7v-2.2l-5.5-5.7 1.5-1.8-9.2-11.2 13.1 2 14.5 9.4 1.1-4.2 7.2 4.6 4.2-.7 12.3 9.2 16.6.2 5.3-.9 12.9 8.5 1.2-2.7c8 1.2 14.2 5.7 14.2 5.7l5.5.5 9.1 8c5.8 1.6 13.6 10.4 13.6 10.4 4.9 7.7 15.4 12 15.4 12l.9-1.9-35.8-49c-11.1-10.1-13.6-44.4-13.6-44.4l5.2.9-.1-3.2c-7.7-9.7-7.5-22.1-9.6-29.1-2-7 2.7-13.4 2.7-13.4l-3.1-7.1-2.3-1v-11.9l-1.7-.7.1-11.4s-5.3-9.6-5.9-12.3c-1.3-5.5-3.3-13.3-3.3-13.3-3.4-5.7-6.7-22.8-6.7-22.8l1.9-.5c17.5 9.4 25.6 29.6 25.6 29.6.7 4 5.4 6.7 5.4 6.7l2.1-1.8c2.8.1 14.2 21.7 14.2 21.7l7.5.6c3.5 4.7 13.6 14.9 13.6 14.9 1.4.6 8.1 16.3 8.1 16.3l1.6-6.7 7.1 6.2 5 .7c2.8.9 9.8 14.5 9.8 14.5h.9L336 317l2.8 9.2 5.4 6.1c12.4 27.3 8.7 39.9 8.7 39.9l2.7 4.6s-2.3-64.4.8-68c3.1-3.5 2.3-5.3 2.3-5.3s2.1-7 6.8-7.4c0 0 .4-16.7 3.9-17.1 0 0 1.8-12.8 7.6-13.4 0 0 .8-4 1.9-4 1.2 0 2.6 2.2 2.6 2.2s2.5-11.7 3.2-12.1 1.7-11.6 6.8-12.2c.8-1.9.4-8.3 5.4-10 0 0 3.6-4.3 4.2-4.3.5 0 5.5 3.2 5.5 3.2.3-1.4 3.7-19.9 8.8-20.2 0 0 .1-9.7 1.9-10.3 0 0 1.1-2.1 2.9-2.3 0 0 .7-4.2 1.8-4.2 1.3 0 3.4 4.2 3.4 4.2s4.3-23.8 6.5-23.9c2.3-.1 2.8 3.2 2.8 3.2s1.6-19.4 3.7-19.9c2.1-.6 2.5 3.5 2.5 3.5s2.9-7 6-7c3.1-.1 5.6 7.2 5.6 7.2l3.6-1.2s-.3 5.1-1.9 6c-1.6.9 2.8.3 2.8.3s-6 14.9-5.3 15.4c.7.5 3.5-2 3.5-2s-.5 3.8-1.8 4.4c-1.3.7 1.1.2 1.1.2s.9 10.3-5.6 20.6l3.1-.1-.4 3.1 1.9-.5s1.5 10.5-1.4 13.5l1.6-.1s.9 13.8-3 18.1l3.6-1.1-2.8 5.8 3.3-.5s2.1 13.8.1 16.4l1.8.2s-.8 14.5-3.8 20.8l3.3.1s.8 19.2 0 20.4-.2 3.3-.2 3.3 1.9 10.3-2.8 15.9l4.3-.5s-1.7 9.8-.5 13.3-3.4 14.6-3.4 14.6 14.4-12 19.1-13.3c0 0 7.1-10 16.7-10 0 0 6.8-5.1 11.1-5.6l.7 2.1s12.9-15.5 21.6-16c0 0 5.4-5.9 13.5-5.6l.7 3.4s16.8-20.9 21.9-21.1l4.6-5.3.8 4.3s9.2-17.9 13.2-18l1.4 1.2 1.9-.8.3-3.8 5.6-5.7.8 4.7 3.9-2.4s-3.3 5.5-1 8.5l5.3.6s-8.1 14.7-11.6 15.5c0 0 2.9.3-1.9 6.9 0 0 .7 6.6-21.1 25.8h8.1l-7.8 11s2.1 11.5-12 20.6c0 0 2.8 16.1-5.3 21.7 0 0 .1 8.5-6.8 12.2 0 0-.5 7-11.9 14.1l.1.7 6.6.3-2.4 4.6s1 7.7-9 12c0 0-3.4 12.7-20.4 16.9 0 0-21.7 28.2-34.5 30.9l2.3 5.5s21.2-12.7 38.7-7.5c0 0 23.8-1 31 1.3 4.5 1.5 6.2.8 6.9 0 .3-.5.4-.9.4-.9s0 .4-.4.9c-.4.8-1.2 1.8-2.1 2.1-1.5.5 20.5-2.8 33 4.8l-3.2 4.7s25.5-.2 25.2 2.7c0 0 10.7 1.2 10.7 4 0 0 4 .7 8.8 0 0 0 4.5-1.5 7-.8 2.5.6 8.5 1.6 8.5 1.6l-.5 1.8 12.6.4 6.5 2.4s-2.7 6.3-6.8 6.8c-4 .5-13.1 1.2-13.1 1.2s-3.5 3.7-12.4 4.4c0 0-6.2 3.8-21.3 3.7 0 0-8.3 8.1-16.3 8 0 0-6.4 7-27.8 4.5 0 0 2.8 11.6-34 9.4 0 0-1.3 4.3-19.4 2.9 0 0-10.6 3.4-36.5-1.1 0 0 12.5 18.7 24.4 22.4 0 0 5.2 8.9 9.4 9.5l.4 3.7s15.3 8.4 16.5 13.1c0 0-2.5.8-1.8 2.5 0 0 17.7 8.5 20.6 13.8l-.2 3.2s6.1 2.7 6.4 5.9l.8 2.7-11.2-3.5s0 1.7-4.6.6-26.4-8.4-26.4-8.4-1.8.3-3.2 1.4c-1.4 1.1-11.1-.5-11.1-.5l-3 1.2-23.6-9.7-10.6-.5-11.1-6.2s-4.4-.1-6.2-1.6c0 0-56.3-52.1-63.1-63.1 0 0-15.5 207.3-3.6 243.3 12.2 1.3 24.6 2 37.2 2 193 0 349.4-156.5 349.4-349.5S593 50.5 400 50.5z"/></svg>